<svg xmlns="http://www.w3.org/2000/svg" width="1200" height="630" viewBox="0 0 1200 630">
  <defs>
    <linearGradient id="bgGrad" x1="0" y1="0" x2="1" y2="1">
      <stop offset="0%" stop-color="#0f172a" />
      <stop offset="100%" stop-color="#111827" />
    </linearGradient>
    <filter id="softShadow" x="-20%" y="-20%" width="140%" height="140%">
      <feDropShadow dx="0" dy="12" stdDeviation="18" flood-color="#000000" flood-opacity="0.20"/>
    </filter>
  </defs>

  <!-- Background -->
  <rect width="1200" height="630" fill="url(#bgGrad)" />

  <!-- Decorative subtle grid/lines -->
  <g opacity="0.10">
    <path d="M0 140 H1200" stroke="#93c5fd" stroke-width="1"/>
    <path d="M0 490 H1200" stroke="#93c5fd" stroke-width="1"/>
    <path d="M260 0 V630" stroke="#93c5fd" stroke-width="1"/>
    <path d="M980 0 V630" stroke="#93c5fd" stroke-width="1"/>
  </g>

  <!-- Left icon block -->
  <g transform="translate(90 145)" filter="url(#softShadow)">
    <rect x="0" y="0" width="240" height="240" rx="56" fill="#111827" stroke="#1f2937" stroke-width="2"/>
    <circle cx="188" cy="58" r="15" fill="#2563EB"/>
    <text x="120" y="158"
          text-anchor="middle"
          font-family="Arial, Helvetica, sans-serif"
          font-size="132"
          font-weight="700"
          fill="#ffffff">G</text>
  </g>

  <!-- Right content -->
  <g transform="translate(380 155)">
    <text x="0" y="56"
          font-family="Arial, Helvetica, sans-serif"
          font-size="56"
          font-weight="700"
          fill="#ffffff">Giuseppe Gruttad'Auria</text>

    <text x="0" y="112"
          font-family="Arial, Helvetica, sans-serif"
          font-size="28"
          font-weight="400"
          fill="#cbd5e1">Researcher • Lecturer • Data Visualization &amp; Consumer Behavior</text>

    <!-- Accent line -->
    <rect x="0" y="142" width="130" height="6" rx="3" fill="#2563EB"/>

    <!-- Description -->
    <text x="0" y="205"
          font-family="Arial, Helvetica, sans-serif"
          font-size="26"
          font-weight="400"
          fill="#d1d5db">
      <tspan x="0" dy="0">Research on how data visualizations shape perceptions and attitudes</tspan>
    </text>

    <!-- URL pill -->
    <g transform="translate(0 340)">
      <rect x="0" y="0" width="390" height="58" rx="29" fill="#0b1220" stroke="#334155" stroke-width="2"/>
      <circle cx="30" cy="29" r="6" fill="#2563EB"/>
      <text x="54" y="38"
            font-family="Arial, Helvetica, sans-serif"
            font-size="24"
            font-weight="700"
            fill="#ffffff">gruttadauria.com</text>
    </g>

    <!-- Small tags -->
    <g transform="translate(0 430)" font-family="Arial, Helvetica, sans-serif" font-size="20" fill="#cbd5e1">
    <rect x="0" y="0" width="178" height="40" rx="20" fill="#111827" stroke="#374151"/>
    <text x="89" y="27" text-anchor="middle">Data Visualization</text>
    
    <rect x="194" y="0" width="144" height="40" rx="20" fill="#111827" stroke="#374151"/>
    <text x="266" y="27" text-anchor="middle">Perceptions</text>
    
    <rect x="354" y="0" width="120" height="40" rx="20" fill="#111827" stroke="#374151"/>
    <text x="414" y="27" text-anchor="middle">Attitudes</text>
    </g>
  </g>
</svg>
